<svg width="266" height="640" viewBox="0 0 266 640" fill="none" xmlns="http://www.w3.org/2000/svg">
<g filter="url(#filter0_d)">
<path d="M84.8367 38.9967L89.9524 32.6443L90.6158 31H381.037L417.92 585.522C376.934 593.541 329.427 602.404 287.846 609.305C275.053 611.427 263.012 613.332 252.023 614.958C252.415 613.747 252.815 612.569 253.222 611.431C254.451 607.99 255.618 605.258 256.64 603.204C257.651 601.171 258.269 600.309 258.303 600.261L258.305 600.259C286.606 562.984 302 517.59 302 463C302 433.552 294.58 407.506 289.268 388.86C289.061 388.131 288.856 387.413 288.655 386.707C282.785 366.049 279.5 353.282 279.5 340C279.5 328.761 284.302 312.986 293.201 283.749C293.683 282.164 294.178 280.54 294.684 278.875C302.613 252.798 314.36 213.692 310.164 175.926C307.05 147.901 299.347 112.158 269.393 86.7465C240.597 62.3177 202.896 57.5 167.5 57.5C150.146 57.5 135.525 59.1117 123.919 60.5693C121.477 60.8759 119.282 61.1573 117.286 61.4131C108.879 62.4904 103.995 63.1163 99.0737 63.2806C94.3915 63.437 92.0816 62.9984 90.1585 62.3656C88.1167 61.6936 84.0053 59.9525 77.1511 54.6682C77.5436 52.7321 78.4105 50.0537 79.938 46.9148C81.6619 43.3722 83.6023 40.5295 84.8367 38.9967ZM197.75 620.871C197.756 620.868 197.897 620.871 198.158 620.89C197.874 620.883 197.744 620.874 197.75 620.871ZM76.9026 56.6922C76.9023 56.6923 76.9016 56.6818 76.901 56.6601C76.9026 56.6812 76.9029 56.692 76.9026 56.6922Z" stroke="#FF8745" stroke-width="110"/>
</g>
<defs>
<filter id="filter0_d" x="0.901733" y="-45" width="504.098" height="749.895" filterUnits="userSpaceOnUse" color-interpolation-filters="sRGB">
<feFlood flood-opacity="0" result="BackgroundImageFix"/>
<feColorMatrix in="SourceAlpha" type="matrix" values="0 0 0 0 0 0 0 0 0 0 0 0 0 0 0 0 0 0 127 0"/>
<feOffset dx="4" dy="4"/>
<feGaussianBlur stdDeviation="12.5"/>
<feColorMatrix type="matrix" values="0 0 0 0 1 0 0 0 0 0.529412 0 0 0 0 0.270588 0 0 0 1 0"/>
<feBlend mode="normal" in2="BackgroundImageFix" result="effect1_dropShadow"/>
<feBlend mode="normal" in="SourceGraphic" in2="effect1_dropShadow" result="shape"/>
</filter>
</defs>
</svg>
